<svg width="681" height="62" viewBox="0 0 681 62" fill="none" xmlns="http://www.w3.org/2000/svg">
<path d="M23.4578 60.1862V36.3071L26.5471 44.4894L0.83109 1.74071H15.192L34.8965 34.5537H26.6306L46.4186 1.74071H59.6941L33.978 44.4894L36.9838 36.3071V60.1862H23.4578ZM91.2135 61.1881C86.5936 61.1881 82.3076 60.4367 78.3555 58.9338C74.4592 57.4309 71.0638 55.3158 68.1693 52.5883C65.3305 49.8608 63.104 46.6603 61.4898 42.9865C59.9313 39.3128 59.152 35.3051 59.152 30.9635C59.152 26.6218 59.9313 22.6141 61.4898 18.9404C63.104 15.2667 65.3584 12.0661 68.2528 9.33863C71.1472 6.61117 74.5427 4.496 78.439 2.99311C82.3354 1.49023 86.5657 0.738791 91.13 0.738791C95.75 0.738791 99.9804 1.49023 103.821 2.99311C107.717 4.496 111.085 6.61117 113.924 9.33863C116.818 12.0661 119.073 15.2667 120.687 18.9404C122.301 22.5584 123.108 26.5661 123.108 30.9635C123.108 35.3051 122.301 39.3407 120.687 43.07C119.073 46.7438 116.818 49.9443 113.924 52.6718C111.085 55.3436 107.717 57.4309 103.821 58.9338C99.9804 60.4367 95.7779 61.1881 91.2135 61.1881ZM91.13 49.666C93.7462 49.666 96.1397 49.2207 98.3105 48.3301C100.537 47.4395 102.485 46.1593 104.155 44.4894C105.825 42.8196 107.105 40.8435 107.996 38.5614C108.942 36.2792 109.415 33.7466 109.415 30.9635C109.415 28.1803 108.942 25.6477 107.996 23.3656C107.105 21.0834 105.825 19.1074 104.155 17.4375C102.541 15.7676 100.62 14.4874 98.394 13.5968C96.1675 12.7062 93.7462 12.2609 91.13 12.2609C88.5139 12.2609 86.0926 12.7062 83.8661 13.5968C81.6953 14.4874 79.7749 15.7676 78.105 17.4375C76.4352 19.1074 75.1271 21.0834 74.1808 23.3656C73.2903 25.6477 72.845 28.1803 72.845 30.9635C72.845 33.6909 73.2903 36.2236 74.1808 38.5614C75.1271 40.8435 76.4073 42.8196 78.0216 44.4894C79.6914 46.1593 81.6396 47.4395 83.8661 48.3301C86.0926 49.2207 88.5139 49.666 91.13 49.666ZM159.24 61.1881C150.946 61.1881 144.462 58.8782 139.786 54.2582C135.11 49.6382 132.772 43.0422 132.772 34.4702V1.74071H146.298V33.9692C146.298 39.5355 147.44 43.5432 149.722 45.9923C152.004 48.4415 155.204 49.666 159.323 49.666C163.442 49.666 166.643 48.4415 168.925 45.9923C171.207 43.5432 172.348 39.5355 172.348 33.9692V1.74071H185.707V34.4702C185.707 43.0422 183.37 49.6382 178.694 54.2582C174.018 58.8782 167.534 61.1881 159.24 61.1881ZM199.074 60.1862V1.74071H224.372C229.604 1.74071 234.113 2.60348 237.898 4.32901C241.683 5.99888 244.605 8.4202 246.665 11.593C248.724 14.7657 249.754 18.5508 249.754 22.9481C249.754 27.2897 248.724 31.047 246.665 34.2197C244.605 37.3368 241.683 39.7303 237.898 41.4002C234.113 43.07 229.604 43.905 224.372 43.905H206.588L212.599 37.9769V60.1862H199.074ZM236.228 60.1862L221.617 38.9788H236.061L250.84 60.1862H236.228ZM212.599 39.4798L206.588 33.1343H223.621C227.795 33.1343 230.912 32.2437 232.972 30.4625C235.031 28.6256 236.061 26.1208 236.061 22.9481C236.061 19.7197 235.031 17.2149 232.972 15.4337C230.912 13.6525 227.795 12.7619 223.621 12.7619H206.588L212.599 6.33286V39.4798ZM278.004 60.1862L252.789 1.74071H267.401L289.443 53.5067H280.843L303.219 1.74071H316.662L291.363 60.1862H278.004ZM321.542 60.1862V1.74071H335.068V60.1862H321.542ZM361.045 60.1862V12.7619H342.342V1.74071H393.273V12.7619H374.571V60.1862H361.045ZM389.934 60.1862L415.984 1.74071H429.343L455.476 60.1862H441.283L419.908 8.58719H425.252L403.794 60.1862H389.934ZM402.959 47.6622L406.549 37.3925H436.607L440.281 47.6622H402.959ZM461.54 60.1862V1.74071H472.728L497.609 42.9865H491.681L516.145 1.74071H527.25L527.417 60.1862H514.726L514.642 21.1947H516.98L497.442 54.0077H491.347L471.392 21.1947H474.231V60.1862H461.54ZM541.283 60.1862V1.74071H554.809V60.1862H541.283ZM568.679 60.1862V1.74071H579.867L614.35 43.8215H608.923V1.74071H622.282V60.1862H611.178L576.611 18.1055H582.038V60.1862H568.679ZM655.314 61.1881C650.638 61.1881 646.157 60.5759 641.871 59.3513C637.585 58.071 634.134 56.429 631.518 54.4252L636.11 44.2389C638.615 46.0201 641.565 47.4952 644.961 48.6641C648.412 49.7774 651.89 50.334 655.397 50.334C658.069 50.334 660.212 50.0835 661.826 49.5825C663.496 49.0259 664.721 48.2745 665.5 47.3282C666.279 46.3819 666.669 45.2965 666.669 44.072C666.669 42.5134 666.057 41.2888 664.832 40.3982C663.607 39.452 661.993 38.7005 659.989 38.1439C657.986 37.5316 655.759 36.975 653.31 36.474C650.916 35.9174 648.495 35.2495 646.046 34.4702C643.652 33.6909 641.454 32.689 639.45 31.4644C637.446 30.2399 635.804 28.6256 634.524 26.6218C633.299 24.618 632.687 22.0575 632.687 18.9404C632.687 15.6006 633.578 12.567 635.359 9.83959C637.196 7.05647 639.923 4.8578 643.541 3.2436C647.215 1.57373 651.807 0.738791 657.318 0.738791C660.991 0.738791 664.609 1.18409 668.172 2.07469C671.734 2.90962 674.879 4.18986 677.607 5.91539L673.432 16.1851C670.704 14.6266 667.977 13.4855 665.249 12.7619C662.522 11.9826 659.85 11.593 657.234 11.593C654.618 11.593 652.475 11.8991 650.805 12.5114C649.135 13.1237 647.938 13.9308 647.215 14.9327C646.491 15.879 646.129 16.9922 646.129 18.2724C646.129 19.7753 646.742 20.9999 647.966 21.9462C649.191 22.8368 650.805 23.5604 652.809 24.117C654.813 24.6736 657.011 25.2302 659.405 25.7869C661.854 26.3435 664.275 26.9836 666.669 27.7072C669.118 28.4308 671.344 29.4049 673.348 30.6295C675.352 31.8541 676.966 33.4683 678.191 35.4721C679.471 37.476 680.111 40.0086 680.111 43.07C680.111 46.3541 679.193 49.3599 677.356 52.0873C675.519 54.8148 672.764 57.0135 669.09 58.6833C665.472 60.3532 660.88 61.1881 655.314 61.1881Z" fill="black"/>
</svg>
