<svg width="392" height="36" viewBox="0 0 392 36" fill="none" xmlns="http://www.w3.org/2000/svg">
<path d="M13.836 35V21.272L15.612 25.976L0.828 1.4H9.084L20.412 20.264H15.66L27.036 1.4H34.668L19.884 25.976L21.612 21.272V35H13.836ZM52.7884 35.576C50.1324 35.576 47.6684 35.144 45.3964 34.28C43.1564 33.416 41.2044 32.2 39.5404 30.632C37.9084 29.064 36.6284 27.224 35.7004 25.112C34.8044 23 34.3564 20.696 34.3564 18.2C34.3564 15.704 34.8044 13.4 35.7004 11.288C36.6284 9.176 37.9244 7.336 39.5884 5.768C41.2524 4.2 43.2044 2.984 45.4444 2.12C47.6844 1.256 50.1164 0.823999 52.7404 0.823999C55.3964 0.823999 57.8284 1.256 60.0364 2.12C62.2764 2.984 64.2124 4.2 65.8444 5.768C67.5084 7.336 68.8044 9.176 69.7324 11.288C70.6604 13.368 71.1244 15.672 71.1244 18.2C71.1244 20.696 70.6604 23.016 69.7324 25.16C68.8044 27.272 67.5084 29.112 65.8444 30.68C64.2124 32.216 62.2764 33.416 60.0364 34.28C57.8284 35.144 55.4124 35.576 52.7884 35.576ZM52.7404 28.952C54.2444 28.952 55.6204 28.696 56.8684 28.184C58.1484 27.672 59.2684 26.936 60.2284 25.976C61.1884 25.016 61.9244 23.88 62.4364 22.568C62.9804 21.256 63.2524 19.8 63.2524 18.2C63.2524 16.6 62.9804 15.144 62.4364 13.832C61.9244 12.52 61.1884 11.384 60.2284 10.424C59.3004 9.464 58.1964 8.728 56.9164 8.216C55.6364 7.704 54.2444 7.448 52.7404 7.448C51.2364 7.448 49.8444 7.704 48.5644 8.216C47.3164 8.728 46.2124 9.464 45.2524 10.424C44.2924 11.384 43.5404 12.52 42.9964 13.832C42.4844 15.144 42.2284 16.6 42.2284 18.2C42.2284 19.768 42.4844 21.224 42.9964 22.568C43.5404 23.88 44.2764 25.016 45.2044 25.976C46.1644 26.936 47.2844 27.672 48.5644 28.184C49.8444 28.696 51.2364 28.952 52.7404 28.952ZM91.8964 35.576C87.1284 35.576 83.4004 34.248 80.7124 31.592C78.0244 28.936 76.6804 25.144 76.6804 20.216V1.4H84.4564V19.928C84.4564 23.128 85.1124 25.432 86.4244 26.84C87.7364 28.248 89.5764 28.952 91.9444 28.952C94.3124 28.952 96.1524 28.248 97.4644 26.84C98.7764 25.432 99.4324 23.128 99.4324 19.928V1.4H107.112V20.216C107.112 25.144 105.768 28.936 103.08 31.592C100.392 34.248 96.6644 35.576 91.8964 35.576ZM114.797 35V1.4H129.341C132.349 1.4 134.941 1.896 137.117 2.888C139.293 3.848 140.973 5.24 142.157 7.064C143.341 8.888 143.933 11.064 143.933 13.592C143.933 16.088 143.341 18.248 142.157 20.072C140.973 21.864 139.293 23.24 137.117 24.2C134.941 25.16 132.349 25.64 129.341 25.64H119.117L122.573 22.232V35H114.797ZM136.156 35L127.757 22.808H136.061L144.557 35H136.156ZM122.573 23.096L119.117 19.448H128.909C131.309 19.448 133.101 18.936 134.285 17.912C135.469 16.856 136.061 15.416 136.061 13.592C136.061 11.736 135.469 10.296 134.285 9.272C133.101 8.248 131.309 7.736 128.909 7.736H119.117L122.573 4.04V23.096ZM160.173 35L145.677 1.4H154.077L166.749 31.16H161.805L174.669 1.4H182.397L167.853 35H160.173ZM185.203 35V1.4H192.979V35H185.203ZM207.913 35V7.736H197.161V1.4H226.441V7.736H215.689V35H207.913ZM224.521 35L239.497 1.4H247.177L262.201 35H254.041L241.753 5.336H244.825L232.489 35H224.521ZM232.009 27.8L234.073 21.896H251.353L253.465 27.8H232.009ZM265.687 35V1.4H272.119L286.423 25.112H283.015L297.079 1.4H303.463L303.559 35H296.263L296.215 12.584H297.559L286.327 31.448H282.823L271.351 12.584H272.983V35H265.687ZM311.531 35V1.4H319.307V35H311.531ZM327.281 35V1.4H333.713L353.537 25.592H350.417V1.4H358.097V35H351.713L331.841 10.808H334.961V35H327.281ZM377.087 35.576C374.399 35.576 371.823 35.224 369.359 34.52C366.895 33.784 364.911 32.84 363.407 31.688L366.047 25.832C367.487 26.856 369.183 27.704 371.135 28.376C373.119 29.016 375.119 29.336 377.135 29.336C378.671 29.336 379.903 29.192 380.831 28.904C381.791 28.584 382.495 28.152 382.943 27.608C383.391 27.064 383.615 26.44 383.615 25.736C383.615 24.84 383.263 24.136 382.559 23.624C381.855 23.08 380.927 22.648 379.775 22.328C378.623 21.976 377.343 21.656 375.935 21.368C374.559 21.048 373.167 20.664 371.759 20.216C370.383 19.768 369.119 19.192 367.967 18.488C366.815 17.784 365.871 16.856 365.135 15.704C364.431 14.552 364.079 13.08 364.079 11.288C364.079 9.368 364.591 7.624 365.615 6.056C366.671 4.456 368.239 3.192 370.319 2.264C372.431 1.304 375.071 0.823999 378.239 0.823999C380.351 0.823999 382.431 1.08 384.479 1.592C386.527 2.072 388.335 2.808 389.903 3.8L387.503 9.704C385.935 8.808 384.367 8.152 382.799 7.736C381.231 7.288 379.695 7.064 378.191 7.064C376.687 7.064 375.455 7.24 374.495 7.592C373.535 7.944 372.847 8.408 372.431 8.984C372.015 9.528 371.807 10.168 371.807 10.904C371.807 11.768 372.159 12.472 372.863 13.016C373.567 13.528 374.495 13.944 375.647 14.264C376.799 14.584 378.063 14.904 379.439 15.224C380.847 15.544 382.239 15.912 383.615 16.328C385.023 16.744 386.303 17.304 387.455 18.008C388.607 18.712 389.535 19.64 390.239 20.792C390.975 21.944 391.343 23.4 391.343 25.16C391.343 27.048 390.815 28.776 389.759 30.344C388.703 31.912 387.119 33.176 385.007 34.136C382.927 35.096 380.287 35.576 377.087 35.576Z" fill="white"/>
</svg>
